<?xml version="1.0" standalone="no"?>
<!DOCTYPE svg PUBLIC "-//W3C//DTD SVG 20010904//EN" "http://www.w3.org/TR/2001/REC-SVG-20010904/DTD/svg10.dtd">
<!-- Created using Krita: https://krita.org -->
<svg xmlns="http://www.w3.org/2000/svg" 
    xmlns:xlink="http://www.w3.org/1999/xlink"
    xmlns:krita="http://krita.org/namespaces/svg/krita"
    xmlns:sodipodi="http://sodipodi.sourceforge.net/DTD/sodipodi-0.dtd"
    width="122.88pt"
    height="122.88pt"
    viewBox="0 0 122.88 122.88">
<defs/>
<ellipse id="shape01" transform="matrix(0.500438750487674 0 0 0.500438750487674 92.0637868927746 54.0916257140072)" rx="5.64031025262329" ry="14.6877587014997" cx="5.64031025262329" cy="14.6877587014997" fill="#f94b16" stroke="#f94b16" stroke-width="2.4" stroke-linecap="square" stroke-linejoin="bevel"/><path id="shape11" transform="matrix(0.500438750487674 0 0 0.500438750487674 87.1490793848706 52.3125459962536)" fill="#f94b16" fill-rule="evenodd" stroke="#f94b16" stroke-width="0.48" stroke-linecap="square" stroke-linejoin="bevel" d="M0.0375 0L14.7886 2.43819C14.7886 12.9982 14.7886 23.4874 14.7886 34.0474L0.0375 36.48C-0.0125 36.785 -0.0125 24.625 0.0375 0Z" sodipodi:nodetypes="ccccc"/><ellipse id="shape21" transform="matrix(0.500438750487674 0 0 0.500438750487674 83.8048974347367 52.7629405280685)" rx="6.6" ry="17.3399993133545" cx="6.6" cy="17.3399993133545" fill="#ae2a0b" fill-rule="evenodd" stroke="#f94b16" stroke-width="2.4" stroke-linecap="square" stroke-linejoin="bevel"/><ellipse id="shape0" transform="matrix(0.587252707389527 0 0 0.587252707389527 83.0054970803599 52.7150404365999)" rx="5.655" ry="14.8572266843969" cx="5.655" cy="14.8572266843969" fill="#faf4ec" stroke="#faf4ec" stroke-width="2.4" stroke-linecap="square" stroke-linejoin="bevel"/><ellipse id="shape2" transform="matrix(0.585926366416304 0 0 0.585926366416304 72.8276174219779 51.2783836992699)" rx="6.6" ry="17.3399993133545" cx="6.6" cy="17.3399993133545" fill="#faf4ec" fill-rule="evenodd" stroke="#faf4ec" stroke-width="2.4" stroke-linecap="square" stroke-linejoin="bevel"/><path id="shape1" transform="matrix(0.701173631826074 0 0 0.701173631826074 77.4074825438201 50.8382417181017)" fill="#faf4ec" fill-rule="evenodd" stroke="#faf4ec" stroke-width="0.48" stroke-linecap="square" stroke-linejoin="bevel" d="M0 0L12.96 1.92L12.96 28.32L0 30.2399C0.0675 30.2829 0.0675 20.203 0 0Z" sodipodi:nodetypes="ccccc"/><ellipse id="shape011" transform="matrix(0.713715872606869 0 0 0.713715872606869 71.7534855797585 50.95711348172)" rx="5.64031025262329" ry="14.6877587014997" cx="5.64031025262329" cy="14.6877587014997" fill="#f94b16" stroke="#f94b16" stroke-width="2.4" stroke-linecap="square" stroke-linejoin="bevel"/><path id="shape111" transform="matrix(0.713715872606869 0 0 0.713715872606869 64.7442266960429 48.4198250883724)" fill="#f94b16" fill-rule="evenodd" stroke="#f94b16" stroke-width="0.48" stroke-linecap="square" stroke-linejoin="bevel" d="M0.0375 0L14.7886 2.43819C14.7886 12.9982 14.7886 23.4874 14.7886 34.0474L0.0375 36.48C-0.0125 36.785 -0.0125 24.625 0.0375 0Z" sodipodi:nodetypes="ccccc"/><ellipse id="shape211" transform="matrix(0.713715872606869 0 0 0.713715872606869 59.9748203773475 49.0621688836489)" rx="6.6" ry="17.3399993133545" cx="6.6" cy="17.3399993133545" fill="#ae2a0b" fill-rule="evenodd" stroke="#f94b16" stroke-width="2.4" stroke-linecap="square" stroke-linejoin="bevel"/><ellipse id="shape02" transform="matrix(0.83752822515607 0 0 0.83752822515607 58.8347313635966 48.9938547182348)" rx="5.655" ry="14.8572266843969" cx="5.655" cy="14.8572266843969" fill="#faf4ec" stroke="#faf4ec" stroke-width="2.4" stroke-linecap="square" stroke-linejoin="bevel"/><ellipse id="shape22" transform="matrix(0.83752822515607 0 0 0.83752822515607 44.2516847268546 46.912117519868)" rx="6.6" ry="17.3399993133545" cx="6.6" cy="17.3399993133545" fill="#faf4ec" fill-rule="evenodd" stroke="#faf4ec" stroke-width="2.4" stroke-linecap="square" stroke-linejoin="bevel"/><path id="shape12" transform="translate(50.8509534768542, 46.3172014139591)" fill="#faf4ec" fill-rule="evenodd" stroke="#faf4ec" stroke-width="0.48" stroke-linecap="square" stroke-linejoin="bevel" d="M0 0L12.96 1.92L12.96 28.32L0 30.2399C0.0675 30.2829 0.0675 20.203 0 0Z" sodipodi:nodetypes="ccccc"/><ellipse id="shape03" transform="translate(42.3015534768542, 46.5799747295622)" rx="5.655" ry="14.8572266843969" cx="5.655" cy="14.8572266843969" fill="#f94b16" stroke="#f94b16" stroke-width="2.4" stroke-linecap="square" stroke-linejoin="bevel"/><path id="shape13" transform="translate(34.2534534768542, 43.1972014139591)" fill="#f94b16" fill-rule="evenodd" stroke="#f94b16" stroke-width="0.48" stroke-linecap="square" stroke-linejoin="bevel" d="M0.0375 0L13.9575 2.4L13.9575 34.08L0.0375 36.48C-0.0125 36.785 -0.0125 24.625 0.0375 0Z" sodipodi:nodetypes="ccccc"/><ellipse id="shape23" transform="translate(27.5709534768542, 44.0972007273136)" rx="6.6" ry="17.3399993133545" cx="6.6" cy="17.3399993133545" fill="#ae2a0b" fill-rule="evenodd" stroke="#f94b16" stroke-width="2.4" stroke-linecap="square" stroke-linejoin="bevel"/>
</svg>
